<?xml version="1.0" encoding="utf-8"?>
<!-- Generator: Adobe Illustrator 25.2.0, SVG Export Plug-In . SVG Version: 6.00 Build 0)  -->
<svg version="1.1" id="Layer_1" xmlns="http://www.w3.org/2000/svg" xmlns:xlink="http://www.w3.org/1999/xlink" x="0px" y="0px"
	 viewBox="0 0 656.6 723.8" style="enable-background:new 0 0 656.6 723.8;" xml:space="preserve">
<style type="text/css">
	.st0{fill-rule:evenodd;clip-rule:evenodd;fill:#BFBFBF;}
</style>
<path class="st0" d="M175.3,723.8c4.5-11.1,8.9-21.8,13.7-33.9c-11.9,2.9-22.2,5.1-32.4,8c-25.4,7.2-51.4,10.6-77.4,14.1
	c-14.1,2-28.5,0.8-42.2-3.5c-6.9-2.2-13-7-19.3-10.8c-1.3-1-2.3-2.3-2.8-3.8c-7.7-17-12.2-35.2-13.3-53.7c0-1.1,0-2.1-0.1-3.2
	c-5.6-27,5.3-51.1,14.4-75.1c21.9-57.8,41.9-116.3,68.3-172.3c7.7-16.4,19.6-29.9,30.9-43.7c12.9-15.6,29.2-26.5,46.3-36.9
	c13-7.9,20.7-20.3,25.2-34.9c2.3-7.5,6.1-14.5,9.2-21.7c0.2-0.4,0-1-0.1-2.1c-1.6,1.2-2.8,2.1-3.8,2.9c8.2-14.6,15.5-30.1,25.2-43.7
	c5.5-7.8,6.6-14.3,4.2-22.6c-0.8-2.9-1.1-5.9-1.1-8.9c-0.1-6.2-2-10.6-8-13.6c-8-4.1-10.1-12.5-12.2-20.4
	c-2.8-10.6-2.1-20.8,3.4-30.8c2.8-5.1,3.3-11.5,4.9-17.3c3.4-12.6,6.2-25.5,10.5-37.8c5.4-15.3,16.3-26.7,28.2-37.4
	c9.6-8.6,20.4-15,32.9-17.8c14.8-3.3,29.8-4.6,44.6,0.5c1.2,0.4,2.5,1.1,3.6,0.9c20.4-2.6,33,10.2,44.8,23.4
	c15.2,16.9,21.2,37.7,22.3,60c0.3,6.2-0.3,12.4-0.5,18.6c-0.4,12.8-2.3,25.7-0.9,38.3c2,18.7-0.7,35.4-9.8,52.1
	c-10.7,19.9-24.6,36.7-41,51.8c-5.1,4.7-10.4,8.5-17.8,8.3l-0.8,1.2c2.1,2,3.9,4.9,6.4,5.8c11.5,4.2,17.4,13.5,22.7,23.5
	c1.4,2.6,2.9,3.6,5.9,4c5,0.8,9.9,2.6,14.8,4.3c7.3,2.6,14.5,3,21.9,0.4c1.2-0.3,2.4-0.4,3.5-0.1c4.1,1,8.2,2.1,12.3,3.3
	c12.6,3.5,21.1,11.2,25.5,23.9c2.3,6.6,5.9,12.8,9.6,18.8c4.3,6.8,8.3,13.6,9,21.9c0.2,1.7,1.4,3.5,2.5,5
	c8.1,11.4,15.3,23.6,24.6,34c14.5,16.2,22.2,36.4,34.3,54c1.7,2.2,3.5,4.3,5.5,6.3c4.7-9.2,9.8-17.4,13-26.3
	c1.8-5.2,0.1-11.5,0.5-17.3c1.1-12.5,6.5-23.7,11-35.3c1.3-3.3,0.4-7.6,0.2-11.4c-0.5-9-1-17.9-1.7-26.9c-0.2-2.3-1.5-4.5-2.4-7
	c4-5.9,4.8-11.8,1.8-19.5c-7.2-18.2-9.7-37.5-3-56.2c4.9-13.6,16.2-21.8,31.1-23.3c6.7-0.6,13.5,0.2,20.2,0.1
	c3.3,0,6.6-0.5,10.4-0.8c0-0.1,0.1,0.9,0.1,1.5l21.1,9.1c0.2-0.5,0.4-1.6,0.8-2.6c1.7-4.9,6.5-6,10-2.3c3.2,3.3,6.7,6.3,9.5,9.9
	c2.3,3.1,4.2,6.5,5.6,10.1c1.4,3.4,2,7.2,3.1,10.7c1.6,5.1,3.9,10.1-1.3,14.6c5.2,4.9,4.7,10.1,1.9,15.4c-2.5,4.9-5.1,9.7-7.7,14.5
	c-4.6,8.6-6.7,17.9-7.6,27.5c-0.3,2.7-2,5.5-3.7,7.9c-5.5,7.5-11.5,14.7-16.9,22.3c-5.6,7.7-10.8,15.7-16.5,24.2
	c4.6,2.7,9.7,6.7,15.5,8.8c12.1,4.4,14.9,14.2,15.9,25c0.3,3.5-1.1,7.3-2.2,10.8c-3.4,10.1-6.8,20.1-10.7,30
	c-1.4,3.5-4.7,6.2-6.5,9.7c-2.3,4.7-5.3,9.6-5.7,14.5c-1.5,17.4-8.3,33.3-13.1,49.7c-3.3,11.3-6.9,22.6-11,33.7
	c-6,16.1-18.5,27.5-29.6,39.9c-0.2,0.3-0.5,0.5-0.8,0.6c-13,4.7-26.2,9.7-40.1,4.4c-14.6-5.6-29.3-11.1-42.9-18.6
	c-8.9-4.9-15.8-13.3-23.5-20.2c-1.2-1.2-2.2-2.5-3.2-3.8c-0.9,1.6-1.7,3.3-2.4,5.1c-1.7,4.9-4.1,9.8-4.7,14.8
	c-0.3,4.4,0.6,8.8,2.6,12.7c10.3,20.3,17.3,42,21,64.4c0.3,1.7,1.1,3.2,2.3,4.5c9.9,9.9,13.7,23.2,21,35.6H175.3z"/>
</svg>
